<svg width="25" height="25" viewBox="0 0 25 25" fill="none" xmlns="http://www.w3.org/2000/svg">
<path d="M6.25 2.08331L3.125 6.24998V20.8333C3.125 21.3858 3.34449 21.9158 3.73519 22.3065C4.12589 22.6972 4.6558 22.9166 5.20833 22.9166H19.7917C20.3442 22.9166 20.8741 22.6972 21.2648 22.3065C21.6555 21.9158 21.875 21.3858 21.875 20.8333V6.24998L18.75 2.08331H6.25Z" stroke="black" stroke-width="1.5" stroke-linecap="round" stroke-linejoin="round"/>
<path d="M3.125 6.25H21.875" stroke="black" stroke-width="1.5" stroke-linecap="round" stroke-linejoin="round"/>
<path d="M16.6666 10.4167C16.6666 11.5218 16.2277 12.5816 15.4463 13.363C14.6649 14.1444 13.605 14.5834 12.5 14.5834C11.3949 14.5834 10.3351 14.1444 9.5537 13.363C8.7723 12.5816 8.33331 11.5218 8.33331 10.4167" stroke="black" stroke-width="1.5" stroke-linecap="round" stroke-linejoin="round"/>
</svg>
