<svg width="1544" height="387" viewBox="0 0 1544 387" fill="none" xmlns="http://www.w3.org/2000/svg">
<path d="M1400.03 175.822C1400.03 163.065 1401.17 152.073 1403.45 142.847C1405.84 133.507 1408.92 125.705 1412.68 119.44C1416.55 113.061 1420.99 107.936 1426 104.063C1431.01 100.19 1436.14 97.2289 1441.38 95.1786C1446.73 93.0144 1452.03 91.5906 1457.27 90.9072C1462.62 90.2238 1467.52 89.8821 1471.96 89.8821C1476.18 89.8821 1480.85 90.2238 1485.97 90.9072C1491.21 91.4767 1496.45 92.7866 1501.69 94.8369C1507.04 96.7732 1512.17 99.6778 1517.07 103.551C1522.08 107.309 1526.47 112.378 1530.22 118.757C1534.1 125.135 1537.17 132.995 1539.45 142.335C1541.84 151.675 1543.04 162.837 1543.04 175.822V299.18C1543.04 311.937 1541.84 322.986 1539.45 332.326C1537.17 341.552 1534.1 349.411 1530.22 355.904C1526.35 362.396 1521.91 367.693 1516.9 371.793C1511.89 375.78 1506.76 378.912 1501.52 381.19C1496.28 383.355 1491.04 384.835 1485.8 385.633C1480.68 386.43 1476.06 386.829 1471.96 386.829C1467.41 386.829 1462.45 386.43 1457.1 385.633C1451.74 384.835 1446.39 383.355 1441.04 381.19C1435.68 378.912 1430.5 375.78 1425.49 371.793C1420.59 367.807 1416.26 362.567 1412.5 356.075C1408.75 349.582 1405.73 341.666 1403.45 332.326C1401.17 322.986 1400.03 311.937 1400.03 299.18V175.822ZM1445.31 317.803C1445.31 329.877 1447.47 338.647 1451.8 344.115C1456.24 349.582 1462.96 352.316 1471.96 352.316C1480.73 352.316 1487.28 349.582 1491.61 344.115C1495.94 338.647 1498.1 329.877 1498.1 317.803V159.762C1498.1 147.005 1495.94 137.722 1491.61 131.912C1487.28 126.103 1480.73 123.199 1471.96 123.199C1462.96 123.199 1456.24 126.103 1451.8 131.912C1447.47 137.722 1445.31 147.005 1445.31 159.762V317.803Z" fill="black"/>
<path d="M1204.25 45.9014C1203.57 37.0612 1203.94 29.7169 1205.37 23.8687C1206.8 17.9526 1208.94 13.2264 1211.8 9.6903C1214.65 6.15419 1218.05 3.67211 1222 2.24407C1226.01 0.748023 1230.23 0 1234.65 0C1239.13 0 1243.08 0.782024 1246.48 2.34607C1249.88 3.91012 1252.91 5.88218 1255.56 8.26226C1258.21 10.6423 1260.56 13.1924 1262.6 15.9125C1264.7 18.6326 1266.68 21.1827 1268.51 23.5627C1270.42 25.9428 1272.29 27.9149 1274.12 29.4789C1276.03 31.043 1278.1 31.825 1280.34 31.825C1285.04 31.825 1288.23 29.3769 1289.93 24.4808C1291.7 19.5846 1291.77 12.4784 1290.14 3.1621H1309.72C1311.22 11.1183 1311.46 18.1226 1310.44 24.1748C1309.48 30.1589 1307.65 35.1571 1304.93 39.1692C1302.27 43.1133 1298.98 46.1054 1295.03 48.1455C1291.16 50.1176 1287.08 51.1036 1282.79 51.1036C1278.17 51.1036 1274.09 50.3216 1270.55 48.7575C1267.02 47.1935 1263.82 45.2554 1260.96 42.9433C1258.18 40.6313 1255.69 38.1152 1253.52 35.3951C1251.34 32.607 1249.23 30.0569 1247.19 27.7449C1245.22 25.4328 1243.28 23.4947 1241.38 21.9307C1239.47 20.3666 1237.43 19.5846 1235.26 19.5846C1232.67 19.5846 1230.46 20.2306 1228.63 21.5227C1226.86 22.8147 1225.47 24.6168 1224.45 26.9288C1223.49 29.2409 1222.88 32.029 1222.61 35.2931C1222.41 38.4892 1222.61 42.0253 1223.22 45.9014H1204.25Z" fill="black"/>
<path d="M1295.42 93.3022L1380.83 382.766H1318.58V343.609H1318.94L1318.56 341.826C1318.55 341.806 1318.55 341.786 1318.54 341.767L1277.24 146.822L1276.99 145.633H1275.77H1239H1237.81L1237.54 146.796L1183.19 382.766H1134.16L1219.58 93.3022H1295.42ZM1315.58 343.609V382.766H1261.61V343.609H1315.58Z" fill="black" stroke="black" stroke-width="3" stroke-linecap="round"/>
<path d="M0 325.15C0 318.885 0.341711 313.133 1.02513 307.894C1.82246 302.54 2.96149 296.788 4.44224 290.637H38.7842V304.818C38.7842 312.677 39.2398 319.626 40.151 325.662C41.1761 331.699 42.7708 336.825 44.935 341.039C47.213 345.14 50.1745 348.272 53.8194 350.436C57.5782 352.487 62.1344 353.512 67.4879 353.512C75.9167 353.512 82.3523 351.234 86.7945 346.678C91.2367 342.008 93.4579 335.23 93.4579 326.346C93.4579 321.79 93.1162 317.632 92.4327 313.873C91.8632 310.001 90.7811 306.185 89.1865 302.426C87.7057 298.667 85.6555 294.738 83.0357 290.637C80.4159 286.423 77.0558 281.753 72.9552 276.627L26.8243 221.782C18.6232 211.303 12.3016 200.767 7.85934 190.174C3.41711 179.467 1.19599 168.077 1.19599 156.003C1.19599 146.321 2.67673 137.437 5.63823 129.35C8.71362 121.263 13.0989 114.314 18.7941 108.505C24.4893 102.582 31.4943 98.0262 39.8093 94.8369C48.2382 91.5337 57.7491 89.8821 68.3421 89.8821C81.2132 89.8821 91.9202 91.7045 100.463 95.3495C109.12 98.9944 116.011 103.778 121.136 109.701C126.262 115.624 129.85 122.288 131.9 129.691C134.064 136.981 135.147 144.328 135.147 151.732C135.147 157.996 134.634 163.805 133.609 169.159C132.698 174.399 131.616 180.208 130.363 186.586H96.1915V172.747C96.1915 157.256 93.9704 145.41 89.5282 137.209C85.086 128.894 77.8531 124.737 67.8296 124.737C59.5146 124.737 53.3069 127.072 49.2063 131.742C45.1058 136.298 43.0555 142.449 43.0555 150.194C43.0555 154.295 43.3403 157.996 43.9098 161.3C44.5932 164.603 45.5045 167.678 46.6435 170.526C47.8964 173.259 49.3772 175.936 51.0857 178.556C52.7943 181.176 54.7307 183.909 56.8948 186.757L108.322 248.948C117.662 261.136 124.838 272.868 129.85 284.145C134.862 295.307 137.368 307.153 137.368 319.683C137.368 330.048 135.716 339.388 132.413 347.703C129.224 356.018 124.61 363.08 118.574 368.889C112.537 374.698 105.247 379.197 96.7041 382.386C88.1613 385.462 78.5365 387 67.8296 387C54.6168 387 43.6251 385.234 34.8545 381.703C26.1978 378.172 19.2497 373.502 14.0101 367.693C8.88448 361.884 5.23956 355.277 3.0754 347.874C1.02513 340.47 0 332.895 0 325.15Z" fill="black"/>
<path d="M239.197 386.829C234.527 386.829 229.459 386.43 223.991 385.633C218.524 384.949 213.114 383.412 207.76 381.02C202.407 378.628 197.224 375.267 192.212 370.939C187.314 366.497 182.929 360.688 179.056 353.512C175.298 346.336 172.279 337.508 170.001 327.029C167.723 316.436 166.584 303.85 166.584 289.27V185.903C166.584 171.209 167.723 158.68 170.001 148.315C172.393 137.835 175.525 129.065 179.398 122.003C183.271 114.827 187.656 109.132 192.554 104.917C197.566 100.703 202.748 97.5136 208.102 95.3495C213.569 93.0714 218.98 91.5906 224.333 90.9072C229.687 90.2238 234.641 89.8821 239.197 89.8821C243.526 89.8821 248.31 90.2238 253.549 90.9072C258.903 91.4767 264.199 92.8436 269.439 95.0077C274.792 97.058 279.975 100.19 284.987 104.405C289.998 108.505 294.441 114.144 298.313 121.319C302.186 128.381 305.262 137.209 307.54 147.802C309.932 158.281 311.128 170.981 311.128 185.903V289.27C311.128 303.736 309.932 316.208 307.54 326.688C305.148 337.053 302.015 345.88 298.143 353.17C294.27 360.346 289.771 366.155 284.645 370.597C279.633 374.926 274.451 378.343 269.097 380.849C263.858 383.241 258.618 384.835 253.378 385.633C248.139 386.43 243.412 386.829 239.197 386.829ZM239.197 353.512C243.526 353.512 247.285 352.772 250.474 351.291C253.777 349.81 256.454 347.247 258.504 343.602C260.668 339.957 262.263 335.173 263.288 329.25C264.427 323.214 264.997 315.639 264.997 306.527V173.772C264.997 164.432 264.427 156.63 263.288 150.365C262.263 144.1 260.668 139.088 258.504 135.33C256.454 131.457 253.777 128.723 250.474 127.129C247.285 125.534 243.526 124.737 239.197 124.737C234.755 124.737 230.882 125.534 227.579 127.129C224.276 128.723 221.542 131.457 219.378 135.33C217.214 139.088 215.562 144.1 214.423 150.365C213.398 156.63 212.886 164.432 212.886 173.772V306.527C212.886 315.639 213.398 323.214 214.423 329.25C215.562 335.173 217.214 339.957 219.378 343.602C221.542 347.247 224.276 349.81 227.579 351.291C230.882 352.772 234.755 353.512 239.197 353.512Z" fill="black"/>
<path d="M352.987 92.4449H464.556V127.299H397.239V214.606H450.033V249.461H397.239V384.266H352.987V92.4449Z" fill="black"/>
<path d="M494.114 92.4449H538.365V384.266H494.114V92.4449Z" fill="black"/>
<path d="M577.149 325.15C577.149 318.885 577.491 313.133 578.174 307.894C578.972 302.54 580.111 296.788 581.592 290.637H615.933V304.818C615.933 312.677 616.389 319.626 617.3 325.662C618.325 331.699 619.92 336.825 622.084 341.039C624.362 345.14 627.324 348.272 630.969 350.436C634.728 352.487 639.284 353.512 644.637 353.512C653.066 353.512 659.502 351.234 663.944 346.678C668.386 342.008 670.607 335.23 670.607 326.346C670.607 321.79 670.265 317.632 669.582 313.873C669.013 310.001 667.93 306.185 666.336 302.426C664.855 298.667 662.805 294.738 660.185 290.637C657.565 286.423 654.205 281.753 650.105 276.627L603.974 221.782C595.773 211.303 589.451 200.767 585.009 190.174C580.566 179.467 578.345 168.077 578.345 156.003C578.345 146.321 579.826 137.437 582.788 129.35C585.863 121.263 590.248 114.314 595.943 108.505C601.639 102.582 608.644 98.0262 616.959 94.8369C625.387 91.5337 634.898 89.8821 645.491 89.8821C658.363 89.8821 669.069 91.7045 677.612 95.3495C686.269 98.9944 693.16 103.778 698.286 109.701C703.411 115.624 706.999 122.288 709.05 129.691C711.214 136.981 712.296 144.328 712.296 151.732C712.296 157.996 711.783 163.805 710.758 169.159C709.847 174.399 708.765 180.208 707.512 186.586H673.341V172.747C673.341 157.256 671.12 145.41 666.677 137.209C662.235 128.894 655.002 124.737 644.979 124.737C636.664 124.737 630.456 127.072 626.356 131.742C622.255 136.298 620.205 142.449 620.205 150.194C620.205 154.295 620.49 157.996 621.059 161.3C621.743 164.603 622.654 167.678 623.793 170.526C625.046 173.259 626.526 175.936 628.235 178.556C629.944 181.176 631.88 183.909 634.044 186.757L685.472 248.948C694.812 261.136 701.988 272.868 706.999 284.145C712.011 295.307 714.517 307.153 714.517 319.683C714.517 330.048 712.865 339.388 709.562 347.703C706.373 356.018 701.76 363.08 695.723 368.889C689.686 374.698 682.396 379.197 673.853 382.386C665.311 385.462 655.686 387 644.979 387C631.766 387 620.774 385.234 612.004 381.703C603.347 378.172 596.399 373.502 591.159 367.693C586.034 361.884 582.389 355.277 580.225 347.874C578.174 340.47 577.149 332.895 577.149 325.15Z" fill="black"/>
<path d="M778.759 127.299H731.773V92.4449H869.824V127.299H823.01V384.266H778.759V127.299Z" fill="black"/>
<path d="M899.724 92.4449H943.976V384.266H899.724V92.4449Z" fill="black"/>
<path d="M1056.91 386.829C1052.35 386.829 1047.4 386.43 1042.05 385.633C1036.81 384.949 1031.51 383.412 1026.16 381.02C1020.92 378.628 1015.85 375.267 1010.95 370.939C1006.17 366.497 1001.9 360.688 998.137 353.512C994.492 346.336 991.53 337.508 989.252 327.029C987.088 316.436 986.006 303.85 986.006 289.27V185.903C986.006 171.209 987.145 158.68 989.423 148.315C991.701 137.835 994.72 129.065 998.479 122.003C1002.24 114.827 1006.57 109.132 1011.46 104.917C1016.36 100.703 1021.43 97.5136 1026.67 95.3495C1031.91 93.0714 1037.09 91.5906 1042.22 90.9072C1047.46 90.2238 1052.3 89.8821 1056.74 89.8821C1068.36 89.8821 1078.04 91.5337 1085.79 94.8369C1093.64 98.0262 1099.91 102.468 1104.58 108.164C1109.36 113.745 1112.72 120.294 1114.66 127.812C1116.71 135.33 1117.74 143.303 1117.74 151.732C1117.74 157.996 1117.39 163.805 1116.71 169.159C1116.14 174.399 1115.23 180.208 1113.98 186.586H1078.1V171.722C1078.1 155.661 1076.33 143.645 1072.8 135.671C1069.27 127.698 1064.09 123.711 1057.25 123.711C1053.15 123.711 1049.56 124.509 1046.49 126.103C1043.41 127.698 1040.85 130.432 1038.8 134.304C1036.75 138.063 1035.16 143.075 1034.02 149.34C1032.99 155.604 1032.48 163.407 1032.48 172.747V306.014C1032.48 315.126 1032.88 322.701 1033.67 328.738C1034.59 334.775 1036.01 339.616 1037.95 343.261C1039.88 346.905 1042.39 349.525 1045.46 351.12C1048.65 352.601 1052.47 353.341 1056.91 353.341C1059.76 353.341 1062.49 352.715 1065.11 351.462C1067.73 350.095 1070.01 348.045 1071.95 345.311C1074 342.463 1075.59 338.932 1076.73 334.718C1077.98 330.389 1078.61 325.321 1078.61 319.512V290.979H1119.1V317.974C1119.1 341.438 1113.75 358.751 1103.04 369.914C1092.34 381.077 1076.96 386.715 1056.91 386.829Z" fill="black"/>
</svg>
