<svg width="139" height="43" viewBox="0 0 139 43" fill="none" xmlns="http://www.w3.org/2000/svg">
<path d="M0 29.0905C0 28.53 0.0305722 28.0154 0.0917167 27.5466C0.163052 27.0676 0.264959 26.553 0.397439 26.0027H3.46995V27.2714C3.46995 27.9746 3.51071 28.5962 3.59224 29.1363C3.68395 29.6764 3.82662 30.135 4.02025 30.5121C4.22406 30.879 4.48902 31.1592 4.81512 31.3528C5.15142 31.5363 5.55905 31.628 6.03801 31.628C6.79213 31.628 7.3679 31.4242 7.76534 31.0165C8.16278 30.5987 8.3615 29.9924 8.3615 29.1975C8.3615 28.7899 8.33093 28.4179 8.26979 28.0816C8.21883 27.7351 8.12202 27.3937 7.97935 27.0574C7.84687 26.7211 7.66344 26.3696 7.42905 26.0027C7.19466 25.6256 6.89404 25.2078 6.52717 24.7492L2.39992 19.8424C1.66619 18.9048 1.1006 17.9622 0.703161 17.0145C0.305722 16.0565 0.107003 15.0374 0.107003 13.9572C0.107003 13.091 0.239482 12.2961 0.504442 11.5726C0.779592 10.8491 1.17194 10.2274 1.68147 9.70769C2.19101 9.17777 2.81774 8.77014 3.56166 8.4848C4.31578 8.18927 5.16671 8.0415 6.11444 8.0415C7.266 8.0415 8.22393 8.20456 8.98823 8.53066C9.76273 8.85676 10.3793 9.28477 10.8379 9.81469C11.2964 10.3446 11.6174 10.9408 11.8009 11.6032C11.9945 12.2554 12.0913 12.9127 12.0913 13.5751C12.0913 14.1356 12.0455 14.6553 11.9537 15.1343C11.8722 15.603 11.7754 16.1228 11.6633 16.6934H8.60608V15.4553C8.60608 14.0693 8.40736 13.0095 8.00992 12.2758C7.61248 11.5318 6.96537 11.1599 6.06859 11.1599C5.32466 11.1599 4.76927 11.3688 4.4024 11.7866C4.03553 12.1942 3.8521 12.7445 3.8521 13.4375C3.8521 13.8044 3.87758 14.1356 3.92853 14.4311C3.98967 14.7266 4.0712 15.0018 4.17311 15.2565C4.28521 15.5011 4.41769 15.7406 4.57055 15.975C4.72341 16.2094 4.89665 16.454 5.09027 16.7087L9.69139 22.2729C10.527 23.3633 11.1691 24.4129 11.6174 25.4218C12.0658 26.4205 12.29 27.4803 12.29 28.6013C12.29 29.5287 12.1423 30.3643 11.8467 31.1082C11.5614 31.8522 11.1487 32.484 10.6086 33.0037C10.0684 33.5235 9.41624 33.926 8.65194 34.2113C7.88763 34.4865 7.02652 34.6241 6.06859 34.6241C4.88646 34.6241 3.90305 34.4661 3.11837 34.1502C2.34387 33.8343 1.72224 33.4165 1.25346 32.8967C0.794878 32.377 0.468774 31.7859 0.27515 31.1235C0.0917167 30.4611 0 29.7835 0 29.0905Z" fill="white"/>
<path d="M21.4006 34.6088C20.9827 34.6088 20.5292 34.5731 20.0401 34.5018C19.5509 34.4406 19.0669 34.303 18.5879 34.089C18.1089 33.875 17.6453 33.5744 17.1969 33.1872C16.7587 32.7897 16.3663 32.27 16.0198 31.628C15.6835 30.986 15.4135 30.1962 15.2097 29.2586C15.0059 28.3109 14.904 27.1848 14.904 25.8804V16.6323C14.904 15.3177 15.0059 14.1967 15.2097 13.2694C15.4237 12.3318 15.7039 11.5471 16.0504 10.9153C16.3969 10.2733 16.7892 9.76374 17.2274 9.38668C17.6758 9.00962 18.1395 8.72428 18.6185 8.53066C19.1076 8.32684 19.5917 8.19437 20.0707 8.13322C20.5496 8.07208 20.9929 8.0415 21.4006 8.0415C21.7878 8.0415 22.2158 8.07208 22.6846 8.13322C23.1635 8.18417 23.6374 8.30646 24.1062 8.50009C24.5852 8.68352 25.0488 8.96377 25.4972 9.34082C25.9456 9.70769 26.3431 10.2121 26.6895 10.8541C27.036 11.486 27.3112 12.2758 27.515 13.2235C27.729 14.161 27.836 15.2973 27.836 16.6323V25.8804C27.836 27.1746 27.729 28.2905 27.515 29.2281C27.301 30.1554 27.0207 30.9452 26.6743 31.5974C26.3278 32.2394 25.9252 32.7591 25.4667 33.1566C25.0183 33.5438 24.5546 33.8496 24.0756 34.0738C23.6068 34.2878 23.1381 34.4304 22.6693 34.5018C22.2005 34.5731 21.7776 34.6088 21.4006 34.6088ZM21.4006 31.628C21.7878 31.628 22.1241 31.5617 22.4094 31.4293C22.705 31.2968 22.9445 31.0675 23.1279 30.7414C23.3215 30.4153 23.4642 29.9873 23.5559 29.4573C23.6578 28.9172 23.7088 28.2396 23.7088 27.4243V15.547C23.7088 14.7113 23.6578 14.0133 23.5559 13.4528C23.4642 12.8923 23.3215 12.4439 23.1279 12.1076C22.9445 11.7611 22.705 11.5165 22.4094 11.3739C22.1241 11.2312 21.7878 11.1599 21.4006 11.1599C21.0031 11.1599 20.6566 11.2312 20.3611 11.3739C20.0656 11.5165 19.821 11.7611 19.6274 12.1076C19.4337 12.4439 19.286 12.8923 19.1841 13.4528C19.0924 14.0133 19.0465 14.7113 19.0465 15.547V27.4243C19.0465 28.2396 19.0924 28.9172 19.1841 29.4573C19.286 29.9873 19.4337 30.4153 19.6274 30.7414C19.821 31.0675 20.0656 31.2968 20.3611 31.4293C20.6566 31.5617 21.0031 31.628 21.4006 31.628Z" fill="white"/>
<path d="M31.5811 8.2708H41.5629V11.3892H35.5402V19.2004H40.2636V22.3187H35.5402V34.3795H31.5811V8.2708Z" fill="white"/>
<path d="M44.2074 8.2708H48.1665V34.3795H44.2074V8.2708Z" fill="white"/>
<path d="M51.6365 29.0905C51.6365 28.53 51.667 28.0154 51.7282 27.5466C51.7995 27.0676 51.9014 26.553 52.0339 26.0027H55.1064V27.2714C55.1064 27.9746 55.1472 28.5962 55.2287 29.1363C55.3204 29.6764 55.4631 30.135 55.6567 30.5121C55.8605 30.879 56.1255 31.1592 56.4516 31.3528C56.7879 31.5363 57.1955 31.628 57.6745 31.628C58.4286 31.628 59.0044 31.4242 59.4018 31.0165C59.7993 30.5987 59.998 29.9924 59.998 29.1975C59.998 28.7899 59.9674 28.4179 59.9063 28.0816C59.8553 27.7351 59.7585 27.3937 59.6158 27.0574C59.4833 26.7211 59.2999 26.3696 59.0655 26.0027C58.8311 25.6256 58.5305 25.2078 58.1636 24.7492L54.0364 19.8424C53.3027 18.9048 52.7371 17.9622 52.3396 17.0145C51.9422 16.0565 51.7435 15.0374 51.7435 13.9572C51.7435 13.091 51.876 12.2961 52.1409 11.5726C52.4161 10.8491 52.8084 10.2274 53.318 9.70769C53.8275 9.17777 54.4542 8.77014 55.1981 8.4848C55.9523 8.18927 56.8032 8.0415 57.7509 8.0415C58.9025 8.0415 59.8604 8.20456 60.6247 8.53066C61.3992 8.85676 62.0157 9.28477 62.4743 9.81469C62.9329 10.3446 63.2539 10.9408 63.4374 11.6032C63.631 12.2554 63.7278 12.9127 63.7278 13.5751C63.7278 14.1356 63.6819 14.6553 63.5902 15.1343C63.5087 15.603 63.4119 16.1228 63.2998 16.6934H60.2426V15.4553C60.2426 14.0693 60.0438 13.0095 59.6464 12.2758C59.249 11.5318 58.6018 11.1599 57.7051 11.1599C56.9611 11.1599 56.4057 11.3688 56.0389 11.7866C55.672 12.1942 55.4886 12.7445 55.4886 13.4375C55.4886 13.8044 55.5141 14.1356 55.565 14.4311C55.6262 14.7266 55.7077 15.0018 55.8096 15.2565C55.9217 15.5011 56.0542 15.7406 56.207 15.975C56.3599 16.2094 56.5331 16.454 56.7267 16.7087L61.3279 22.2729C62.1635 23.3633 62.8055 24.4129 63.2539 25.4218C63.7023 26.4205 63.9265 27.4803 63.9265 28.6013C63.9265 29.5287 63.7787 30.3643 63.4832 31.1082C63.1979 31.8522 62.7851 32.484 62.245 33.0037C61.7049 33.5235 61.0527 33.926 60.2884 34.2113C59.5241 34.4865 58.663 34.6241 57.7051 34.6241C56.5229 34.6241 55.5395 34.4661 54.7548 34.1502C53.9803 33.8343 53.3587 33.4165 52.8899 32.8967C52.4314 32.377 52.1053 31.7859 51.9116 31.1235C51.7282 30.4611 51.6365 29.7835 51.6365 29.0905Z" fill="white"/>
<path d="M69.6741 11.3892H65.4704V8.2708H77.8216V11.3892H73.6332V34.3795H69.6741V11.3892Z" fill="white"/>
<path d="M80.4967 8.2708H84.4557V34.3795H80.4967V8.2708Z" fill="white"/>
<path d="M94.5599 34.6088C94.1522 34.6088 93.7089 34.5731 93.23 34.5018C92.7612 34.4406 92.2873 34.303 91.8084 34.089C91.3396 33.875 90.8861 33.5744 90.4479 33.1872C90.0199 32.7897 89.6377 32.27 89.3015 31.628C88.9753 30.986 88.7104 30.1962 88.5066 29.2586C88.313 28.3109 88.2161 27.1848 88.2161 25.8804V16.6323C88.2161 15.3177 88.318 14.1967 88.5219 13.2694C88.7257 12.3318 88.9957 11.5471 89.332 10.9153C89.6683 10.2733 90.0556 9.76374 90.4938 9.38668C90.932 9.00962 91.3855 8.72428 91.8542 8.53066C92.323 8.32684 92.7867 8.19437 93.2453 8.13322C93.714 8.07208 94.1471 8.0415 94.5446 8.0415C95.584 8.0415 96.4503 8.18927 97.1432 8.4848C97.8464 8.77014 98.4069 9.16758 98.8247 9.67712C99.2527 10.1765 99.5533 10.7624 99.7266 11.435C99.91 12.1076 100.002 12.821 100.002 13.5751C100.002 14.1356 99.9712 14.6553 99.91 15.1343C99.8591 15.603 99.7775 16.1228 99.6654 16.6934H96.4553V15.3636C96.4553 13.9267 96.2974 12.8515 95.9815 12.1382C95.6656 11.4248 95.2019 11.0682 94.5904 11.0682C94.2236 11.0682 93.9026 11.1395 93.6274 11.2822C93.3523 11.4248 93.123 11.6694 92.9395 12.0159C92.7561 12.3522 92.6134 12.8006 92.5115 13.3611C92.4198 13.9216 92.374 14.6196 92.374 15.4553V27.3784C92.374 28.1937 92.4096 28.8714 92.481 29.4115C92.5625 29.9516 92.6899 30.3847 92.8631 30.7108C93.0364 31.0369 93.2606 31.2713 93.5357 31.414C93.821 31.5464 94.1624 31.6127 94.5599 31.6127C94.8146 31.6127 95.0592 31.5566 95.2936 31.4445C95.528 31.3223 95.7318 31.1388 95.9051 30.8942C96.0885 30.6395 96.2312 30.3236 96.3331 29.9465C96.4452 29.5593 96.5012 29.1058 96.5012 28.586V26.0333H100.124V28.4485C100.124 30.5478 99.6451 32.0967 98.6871 33.0954C97.7292 34.0941 96.3534 34.5986 94.5599 34.6088Z" fill="white"/>
<path d="M125.258 15.7304C125.258 14.5891 125.36 13.6056 125.564 12.7802C125.778 11.9446 126.053 11.2465 126.389 10.686C126.736 10.1153 127.133 9.65674 127.582 9.31025C128.03 8.96377 128.489 8.69881 128.958 8.51537C129.437 8.32175 129.91 8.19437 130.379 8.13322C130.858 8.07208 131.296 8.0415 131.694 8.0415C132.071 8.0415 132.489 8.07208 132.947 8.13322C133.416 8.18417 133.885 8.30137 134.354 8.4848C134.833 8.65804 135.291 8.91791 135.729 9.26439C136.178 9.60069 136.57 10.0542 136.906 10.6249C137.253 11.1955 137.528 11.8987 137.732 12.7343C137.946 13.57 138.053 14.5687 138.053 15.7304V26.767C138.053 27.9084 137.946 28.8969 137.732 29.7325C137.528 30.5579 137.253 31.2611 136.906 31.842C136.56 32.4228 136.162 32.8967 135.714 33.2636C135.266 33.6203 134.807 33.9005 134.338 34.1043C133.869 34.2979 133.401 34.4304 132.932 34.5018C132.473 34.5731 132.061 34.6088 131.694 34.6088C131.286 34.6088 130.843 34.5731 130.364 34.5018C129.885 34.4304 129.406 34.2979 128.927 34.1043C128.448 33.9005 127.984 33.6203 127.536 33.2636C127.098 32.9069 126.71 32.4381 126.374 31.8573C126.038 31.2764 125.768 30.5681 125.564 29.7325C125.36 28.8969 125.258 27.9084 125.258 26.767V15.7304ZM129.309 28.4332C129.309 29.5134 129.503 30.2981 129.89 30.7872C130.287 31.2764 130.889 31.521 131.694 31.521C132.478 31.521 133.064 31.2764 133.452 30.7872C133.839 30.2981 134.033 29.5134 134.033 28.4332V14.2935C134.033 13.1522 133.839 12.3216 133.452 11.8019C133.064 11.2822 132.478 11.0223 131.694 11.0223C130.889 11.0223 130.287 11.2822 129.89 11.8019C129.503 12.3216 129.309 13.1522 129.309 14.2935V28.4332Z" fill="white"/>
<path d="M107.742 4.10672C107.681 3.31579 107.715 2.65872 107.842 2.13549C107.97 1.60618 108.162 1.18334 108.417 0.866974C108.673 0.550604 108.977 0.328537 109.33 0.200773C109.689 0.0669243 110.066 0 110.462 0C110.863 0 111.216 0.0699663 111.52 0.209899C111.824 0.349831 112.095 0.526268 112.332 0.739209C112.57 0.95215 112.78 1.1803 112.962 1.42366C113.151 1.66702 113.327 1.89517 113.491 2.10811C113.662 2.32106 113.829 2.49749 113.993 2.63742C114.164 2.77736 114.349 2.84732 114.55 2.84732C114.97 2.84732 115.256 2.6283 115.408 2.19025C115.566 1.7522 115.572 1.11642 115.426 0.282907H117.178C117.312 0.994738 117.334 1.62139 117.242 2.16287C117.157 2.69826 116.993 3.14544 116.749 3.5044C116.512 3.85727 116.217 4.12497 115.864 4.30749C115.517 4.48393 115.152 4.57214 114.769 4.57214C114.355 4.57214 113.99 4.50218 113.674 4.36225C113.358 4.22231 113.072 4.04892 112.816 3.84206C112.567 3.6352 112.345 3.4101 112.15 3.16673C111.955 2.91729 111.767 2.68914 111.584 2.48228C111.408 2.27543 111.234 2.10203 111.064 1.9621C110.894 1.82217 110.711 1.7522 110.516 1.7522C110.285 1.7522 110.087 1.81 109.923 1.92559C109.765 2.04119 109.64 2.20242 109.549 2.40927C109.464 2.61613 109.409 2.86558 109.385 3.15761C109.367 3.44356 109.385 3.75993 109.44 4.10672H107.742Z" fill="white"/>
<path d="M114.877 9.71362L121.713 32.8798H117.837H114.239V32.1081H117.837H119.688L119.305 30.2972L115.609 12.8531L115.357 11.664H114.141H110.851H109.658L109.39 12.8273L104.771 32.8798H103.298L110.134 9.71362H114.877Z" fill="white" stroke="white" stroke-width="3" stroke-linecap="round"/>
<rect x="11.9011" y="39.6621" width="114.251" height="2.38022" rx="1.19011" fill="white"/>
<rect y="39.6621" width="6.74396" height="2.38022" rx="1.19011" fill="white"/>
<rect x="131.309" y="39.6621" width="6.74396" height="2.38022" rx="1.19011" fill="white"/>
</svg>
