<svg width="103" height="26" viewBox="0 0 103 26" fill="none" xmlns="http://www.w3.org/2000/svg">
<path d="M93.4542 11.7365C93.4542 10.8849 93.5302 10.1512 93.6823 9.53532C93.8419 8.91185 94.0472 8.39103 94.2981 7.97285C94.5566 7.54707 94.8532 7.20493 95.1877 6.94642C95.5222 6.68791 95.8644 6.49023 96.2141 6.35337C96.5715 6.20891 96.925 6.11387 97.2748 6.06825C97.6321 6.02263 97.9591 5.99982 98.2556 5.99982C98.5369 5.99982 98.8487 6.02263 99.1908 6.06825C99.5405 6.10626 99.8903 6.1937 100.24 6.33056C100.597 6.45981 100.94 6.65369 101.266 6.9122C101.601 7.16311 101.894 7.50145 102.145 7.92723C102.403 8.35302 102.608 8.87764 102.761 9.5011C102.92 10.1246 103 10.8697 103 11.7365V19.9707C103 20.8223 102.92 21.5598 102.761 22.1833C102.608 22.7991 102.403 23.3238 102.145 23.7572C101.886 24.1905 101.59 24.5441 101.255 24.8178C100.921 25.0839 100.578 25.293 100.229 25.4451C99.8789 25.5895 99.5291 25.6884 99.1794 25.7416C98.8372 25.7948 98.5293 25.8214 98.2556 25.8214C97.9515 25.8214 97.6207 25.7948 97.2634 25.7416C96.906 25.6884 96.5487 25.5895 96.1913 25.4451C95.834 25.293 95.488 25.0839 95.1535 24.8178C94.8265 24.5517 94.5376 24.2019 94.2867 23.7686C94.0358 23.3352 93.8343 22.8067 93.6823 22.1833C93.5302 21.5598 93.4542 20.8223 93.4542 19.9707V11.7365ZM96.4764 21.2139C96.4764 22.0198 96.6209 22.6053 96.9098 22.9702C97.2064 23.3352 97.6549 23.5177 98.2556 23.5177C98.841 23.5177 99.2782 23.3352 99.5672 22.9702C99.8561 22.6053 100.001 22.0198 100.001 21.2139V10.6644C100.001 9.81284 99.8561 9.19317 99.5672 8.80541C99.2782 8.41764 98.841 8.22376 98.2556 8.22376C97.6549 8.22376 97.2064 8.41764 96.9098 8.80541C96.6209 9.19317 96.4764 9.81284 96.4764 10.6644V21.2139Z" fill="black"/>
<path d="M80.3854 3.06399C80.34 2.47389 80.365 1.98365 80.4603 1.59327C80.5556 1.19836 80.6986 0.882882 80.8893 0.646842C81.0799 0.410801 81.3069 0.245119 81.5702 0.149795C81.838 0.0499316 82.1194 0 82.4145 0C82.7141 0 82.9773 0.0522013 83.2043 0.156604C83.4313 0.261006 83.6333 0.392644 83.8103 0.551518C83.9873 0.710391 84.1439 0.880612 84.2801 1.06218C84.4208 1.24375 84.5525 1.41397 84.675 1.57285C84.8021 1.73172 84.9269 1.86336 85.0495 1.96776C85.1766 2.07216 85.315 2.12436 85.4648 2.12436C85.778 2.12436 85.9914 1.96095 86.1049 1.63413C86.2229 1.3073 86.2274 0.83295 86.1185 0.211075H87.4258C87.5257 0.742166 87.5415 1.20971 87.4735 1.6137C87.4099 2.01315 87.2873 2.34679 87.1058 2.6146C86.9287 2.87788 86.7086 3.0776 86.4453 3.21378C86.1866 3.34542 85.9142 3.41124 85.6282 3.41124C85.3196 3.41124 85.0472 3.35904 84.8112 3.25463C84.5751 3.15023 84.3618 3.02086 84.1712 2.86653C83.985 2.7122 83.8194 2.54424 83.6741 2.36267C83.5289 2.17657 83.3881 2.00634 83.252 1.85201C83.1203 1.69768 82.991 1.56831 82.8639 1.4639C82.7368 1.3595 82.6006 1.3073 82.4553 1.3073C82.2828 1.3073 82.1353 1.35042 82.0127 1.43667C81.8947 1.52291 81.8017 1.6432 81.7336 1.79754C81.67 1.95187 81.6292 2.13798 81.611 2.35587C81.5974 2.56921 81.611 2.80525 81.6519 3.06399H80.3854Z" fill="black"/>
<path d="M88.2755 17.2903L90.2998 24.1504H89.7289L89.3906 22.5536C89.3868 22.5337 89.3826 22.5139 89.3781 22.4943L88.2755 17.2903ZM78.8823 19.7352L77.8653 24.1504H77.5794L78.8823 19.7352ZM82.2503 8.32141L82.4549 7.62799H85.4243L85.6289 8.32141H85.1598H82.7052H82.2503Z" fill="#1D1D1D" stroke="#1D1D1D" stroke-width="3" stroke-linecap="round"/>
<path d="M0 21.7042C0 21.286 0.0228097 20.9021 0.068429 20.5523C0.121652 20.195 0.197684 19.811 0.296526 19.4004H2.5889V20.347C2.5889 20.8717 2.61931 21.3355 2.68014 21.7384C2.74857 22.1414 2.85501 22.4836 2.99947 22.7649C3.15154 23.0386 3.34922 23.2477 3.59252 23.3921C3.84343 23.529 4.14756 23.5974 4.50491 23.5974C5.06755 23.5974 5.49713 23.4454 5.79366 23.1412C6.09018 22.8295 6.23845 22.3771 6.23845 21.7841C6.23845 21.4799 6.21564 21.2024 6.17002 20.9515C6.132 20.693 6.05977 20.4383 5.95333 20.1874C5.85448 19.9365 5.71763 19.6742 5.54275 19.4004C5.36788 19.1191 5.14358 18.8074 4.86987 18.4652L1.79056 14.8043C1.24313 14.1048 0.821148 13.4015 0.524623 12.6944C0.228097 11.9797 0.0798339 11.2194 0.0798339 10.4134C0.0798339 9.76715 0.178676 9.1741 0.37636 8.63427C0.581647 8.09444 0.874371 7.63065 1.25453 7.24288C1.63469 6.84752 2.10229 6.54339 2.65733 6.3305C3.21997 6.11 3.85484 5.99976 4.56194 5.99976C5.4211 5.99976 6.1358 6.12141 6.70604 6.36471C7.28389 6.60801 7.74389 6.92735 8.08603 7.32272C8.42818 7.71809 8.66768 8.16287 8.80454 8.65708C8.949 9.14369 9.02123 9.6341 9.02123 10.1283C9.02123 10.5465 8.98701 10.9343 8.91858 11.2916C8.85776 11.6414 8.78553 12.0291 8.70189 12.4549H6.42092V11.5311C6.42092 10.4971 6.27266 9.70633 5.97614 9.1589C5.67961 8.60386 5.1968 8.32634 4.52772 8.32634C3.97269 8.32634 3.55831 8.48221 3.28459 8.79394C3.01088 9.09807 2.87402 9.50865 2.87402 10.0257C2.87402 10.2994 2.89303 10.5465 2.93104 10.767C2.97666 10.9875 3.03749 11.1928 3.11352 11.3828C3.19716 11.5653 3.296 11.744 3.41005 11.9189C3.52409 12.0937 3.65335 12.2762 3.79781 12.4663L7.23067 16.6177C7.85413 17.4312 8.33314 18.2143 8.66768 18.9671C9.00222 19.7122 9.16949 20.5029 9.16949 21.3393C9.16949 22.0312 9.05924 22.6546 8.83875 23.2097C8.62586 23.7647 8.31793 24.2361 7.91496 24.6239C7.51199 25.0116 7.02538 25.312 6.45514 25.5248C5.8849 25.7301 5.24242 25.8328 4.52772 25.8328C3.64575 25.8328 2.91204 25.7149 2.32659 25.4792C1.74874 25.2435 1.28495 24.9318 0.935197 24.544C0.593052 24.1563 0.349748 23.7153 0.205287 23.2211C0.068429 22.7269 0 22.2212 0 21.7042Z" fill="black"/>
<path d="M15.9668 25.8214C15.655 25.8214 15.3167 25.7948 14.9517 25.7415C14.5868 25.6959 14.2256 25.5933 13.8683 25.4336C13.5109 25.2739 13.165 25.0496 12.8304 24.7607C12.5035 24.4642 12.2108 24.0764 11.9523 23.5974C11.7014 23.1184 11.4999 22.5292 11.3478 21.8297C11.1957 21.1226 11.1197 20.2824 11.1197 19.3092V12.4093C11.1197 11.4285 11.1957 10.5921 11.3478 9.90021C11.5075 9.20071 11.7166 8.61527 11.9751 8.14387C12.2336 7.66486 12.5263 7.2847 12.8533 7.00338C13.1878 6.72206 13.5337 6.50917 13.8911 6.36471C14.256 6.21265 14.6172 6.1138 14.9746 6.06818C15.3319 6.02257 15.6626 5.99976 15.9668 5.99976C16.2557 5.99976 16.575 6.02257 16.9248 6.06818C17.2821 6.1062 17.6357 6.19744 17.9854 6.3419C18.3428 6.47876 18.6887 6.68785 19.0233 6.96917C19.3578 7.24288 19.6543 7.61924 19.9128 8.09825C20.1714 8.56965 20.3766 9.1589 20.5287 9.866C20.6884 10.5655 20.7682 11.4133 20.7682 12.4093V19.3092C20.7682 20.2748 20.6884 21.1074 20.5287 21.8069C20.369 22.4988 20.16 23.088 19.9014 23.5746C19.6429 24.0536 19.3426 24.4414 19.0005 24.7379C18.6659 25.0268 18.32 25.2549 17.9626 25.4222C17.6129 25.5819 17.2631 25.6883 16.9134 25.7415C16.5636 25.7948 16.2481 25.8214 15.9668 25.8214ZM15.9668 23.5974C16.2557 23.5974 16.5066 23.548 16.7195 23.4492C16.94 23.3503 17.1187 23.1792 17.2555 22.9359C17.4 22.6926 17.5064 22.3733 17.5749 21.9779C17.6509 21.575 17.6889 21.0694 17.6889 20.4611V11.5995C17.6889 10.9761 17.6509 10.4552 17.5749 10.0371C17.5064 9.61889 17.4 9.28435 17.2555 9.03344C17.1187 8.77493 16.94 8.59246 16.7195 8.48601C16.5066 8.37957 16.2557 8.32634 15.9668 8.32634C15.6702 8.32634 15.4117 8.37957 15.1912 8.48601C14.9708 8.59246 14.7883 8.77493 14.6438 9.03344C14.4994 9.28435 14.3891 9.61889 14.3131 10.0371C14.2446 10.4552 14.2104 10.9761 14.2104 11.5995V20.4611C14.2104 21.0694 14.2446 21.575 14.3131 21.9779C14.3891 22.3733 14.4994 22.6926 14.6438 22.9359C14.7883 23.1792 14.9708 23.3503 15.1912 23.4492C15.4117 23.548 15.6702 23.5974 15.9668 23.5974Z" fill="black"/>
<path d="M23.5624 6.17083H31.0098V8.49742H26.5162V14.3253H30.0403V16.6519H26.5162V25.6503H23.5624V6.17083Z" fill="black"/>
<path d="M32.9828 6.17083H35.9366V25.6503H32.9828V6.17083Z" fill="black"/>
<path d="M38.5255 21.7042C38.5255 21.286 38.5484 20.9021 38.594 20.5523C38.6472 20.195 38.7232 19.811 38.8221 19.4004H41.1144V20.347C41.1144 20.8717 41.1449 21.3355 41.2057 21.7384C41.2741 22.1414 41.3806 22.4836 41.525 22.7649C41.6771 23.0386 41.8748 23.2477 42.1181 23.3921C42.369 23.529 42.6731 23.5974 43.0305 23.5974C43.5931 23.5974 44.0227 23.4454 44.3192 23.1412C44.6157 22.8295 44.764 22.3771 44.764 21.7841C44.764 21.4799 44.7412 21.2024 44.6956 20.9515C44.6575 20.693 44.5853 20.4383 44.4789 20.1874C44.38 19.9365 44.2432 19.6742 44.0683 19.4004C43.8934 19.1191 43.6691 18.8074 43.3954 18.4652L40.3161 14.8043C39.7687 14.1048 39.3467 13.4015 39.0502 12.6944C38.7536 11.9797 38.6054 11.2194 38.6054 10.4134C38.6054 9.76715 38.7042 9.1741 38.9019 8.63427C39.1072 8.09444 39.3999 7.63065 39.7801 7.24288C40.1602 6.84752 40.6278 6.54339 41.1829 6.3305C41.7455 6.11 42.3804 5.99976 43.0875 5.99976C43.9466 5.99976 44.6613 6.12141 45.2316 6.36471C45.8094 6.60801 46.2694 6.92735 46.6116 7.32272C46.9537 7.71809 47.1932 8.16287 47.3301 8.65708C47.4745 9.14369 47.5468 9.6341 47.5468 10.1283C47.5468 10.5465 47.5126 10.9343 47.4441 11.2916C47.3833 11.6414 47.3111 12.0291 47.2274 12.4549H44.9465V11.5311C44.9465 10.4971 44.7982 9.70633 44.5017 9.1589C44.2052 8.60386 43.7223 8.32634 43.0533 8.32634C42.4982 8.32634 42.0839 8.48221 41.8101 8.79394C41.5364 9.09807 41.3996 9.50865 41.3996 10.0257C41.3996 10.2994 41.4186 10.5465 41.4566 10.767C41.5022 10.9875 41.563 11.1928 41.6391 11.3828C41.7227 11.5653 41.8215 11.744 41.9356 11.9189C42.0496 12.0937 42.1789 12.2762 42.3234 12.4663L45.7562 16.6177C46.3797 17.4312 46.8587 18.2143 47.1932 18.9671C47.5278 19.7122 47.695 20.5029 47.695 21.3393C47.695 22.0312 47.5848 22.6546 47.3643 23.2097C47.1514 23.7647 46.8435 24.2361 46.4405 24.6239C46.0375 25.0116 45.5509 25.312 44.9807 25.5248C44.4104 25.7301 43.768 25.8328 43.0533 25.8328C42.1713 25.8328 41.4376 25.7149 40.8521 25.4792C40.2743 25.2435 39.8105 24.9318 39.4607 24.544C39.1186 24.1563 38.8753 23.7153 38.7308 23.2211C38.594 22.7269 38.5255 22.2212 38.5255 21.7042Z" fill="black"/>
<path d="M51.9833 8.49742H48.8469V6.17083H58.062V8.49742H54.9371V25.6503H51.9833V8.49742Z" fill="black"/>
<path d="M60.0579 6.17083H63.0117V25.6503H60.0579V6.17083Z" fill="black"/>
<path d="M70.5503 25.8214C70.2462 25.8214 69.9155 25.7948 69.5581 25.7415C69.2084 25.6959 68.8548 25.5933 68.4975 25.4336C68.1477 25.2739 67.8094 25.0496 67.4824 24.7607C67.1631 24.4642 66.878 24.0764 66.6271 23.5974C66.3838 23.1184 66.1861 22.5292 66.034 21.8297C65.8896 21.1226 65.8173 20.2824 65.8173 19.3092V12.4093C65.8173 11.4285 65.8934 10.5921 66.0454 9.90021C66.1975 9.20071 66.399 8.61527 66.6499 8.14387C66.9008 7.66486 67.1897 7.2847 67.5166 7.00338C67.8436 6.72206 68.1819 6.50917 68.5317 6.36471C68.8814 6.21265 69.2274 6.1138 69.5695 6.06818C69.9193 6.02257 70.2424 5.99976 70.5389 5.99976C71.3145 5.99976 71.9607 6.11 72.4777 6.3305C73.0024 6.54339 73.4205 6.83991 73.7323 7.22007C74.0516 7.59263 74.2759 8.02982 74.4052 8.53163C74.542 9.03344 74.6105 9.56567 74.6105 10.1283C74.6105 10.5465 74.5876 10.9343 74.542 11.2916C74.504 11.6414 74.4432 12.0291 74.3595 12.4549H71.9645V11.4627C71.9645 10.3906 71.8467 9.58848 71.611 9.05625C71.3753 8.52403 71.0293 8.25791 70.5731 8.25791C70.2994 8.25791 70.0599 8.31114 69.8546 8.41758C69.6493 8.52403 69.4783 8.7065 69.3414 8.96501C69.2046 9.21592 69.0981 9.55046 69.0221 9.96864C68.9537 10.3868 68.9194 10.9076 68.9194 11.5311V20.4269C68.9194 21.0351 68.946 21.5408 68.9993 21.9437C69.0601 22.3467 69.1551 22.6698 69.2844 22.9131C69.4136 23.1564 69.5809 23.3313 69.7862 23.4378C69.9991 23.5366 70.2538 23.586 70.5503 23.586C70.7404 23.586 70.9229 23.5442 71.0978 23.4606C71.2726 23.3693 71.4247 23.2325 71.554 23.05C71.6908 22.8599 71.7973 22.6242 71.8733 22.3429C71.9569 22.054 71.9987 21.7156 71.9987 21.3279V19.4233H74.7017V21.2252C74.7017 22.7915 74.3443 23.9472 73.6296 24.6923C72.9149 25.4374 71.8885 25.8138 70.5503 25.8214Z" fill="black"/>
</svg>
