<svg width="21" height="22" viewBox="0 0 21 22" fill="none" xmlns="http://www.w3.org/2000/svg">
<path d="M19.7413 6.15201L16.2036 2.26489H4.76063L1.22292 6.15201C0.988588 6.40261 0.861895 6.73512 0.870062 7.07812C0.878228 7.42111 1.0206 7.74722 1.2666 7.98638L4.54226 11.262V19.7351H16.4657V11.262L19.7413 7.98638C19.9814 7.74145 20.1159 7.41216 20.1159 7.0692C20.1159 6.72623 19.9814 6.39694 19.7413 6.15201ZM16.0726 9.12194L14.7186 7.85535V17.9881H6.2456V7.85535L4.89166 9.12194L2.79524 7.02552L5.54679 4.01191H8.77878C8.86674 4.39789 9.08319 4.74254 9.39265 4.98941C9.70212 5.23629 10.0863 5.37073 10.4821 5.37073C10.878 5.37073 11.2621 5.23629 11.5716 4.98941C11.8811 4.74254 12.0975 4.39789 12.1855 4.01191H15.4174L18.169 7.02552L16.0726 9.12194Z" fill="#1D1D1D"/>
</svg>
