<svg width="84" height="83" viewBox="0 0 84 83" fill="none" xmlns="http://www.w3.org/2000/svg">
<path d="M69.6666 41.5V76.0833H14.3333V41.5" stroke="#1D1D1D" stroke-width="4" stroke-linecap="round" stroke-linejoin="round"/>
<path d="M76.5832 24.2085H7.4165V41.5002H76.5832V24.2085Z" stroke="#1D1D1D" stroke-width="4" stroke-linecap="round" stroke-linejoin="round"/>
<path d="M42 76.0835V24.2085" stroke="#1D1D1D" stroke-width="4" stroke-linecap="round" stroke-linejoin="round"/>
<path d="M42.0001 24.2082H26.4376C24.1446 24.2082 21.9455 23.2973 20.3241 21.6759C18.7026 20.0545 17.7917 17.8554 17.7917 15.5623C17.7917 13.2693 18.7026 11.0702 20.3241 9.44881C21.9455 7.8274 24.1446 6.9165 26.4376 6.9165C38.5417 6.9165 42.0001 24.2082 42.0001 24.2082Z" stroke="#1D1D1D" stroke-width="4" stroke-linecap="round" stroke-linejoin="round"/>
<path d="M42 24.2082H57.5625C59.8555 24.2082 62.0546 23.2973 63.676 21.6759C65.2974 20.0545 66.2083 17.8554 66.2083 15.5623C66.2083 13.2693 65.2974 11.0702 63.676 9.44881C62.0546 7.8274 59.8555 6.9165 57.5625 6.9165C45.4583 6.9165 42 24.2082 42 24.2082Z" stroke="#1D1D1D" stroke-width="4" stroke-linecap="round" stroke-linejoin="round"/>
</svg>
