<svg width="39" height="34" viewBox="0 0 39 34" fill="none" xmlns="http://www.w3.org/2000/svg">
<g clip-path="url(#clip0_80_28)">
<path d="M34.3012 4.65222C33.446 3.81139 32.4306 3.14438 31.313 2.6893C30.1954 2.23423 28.9975 2 27.7878 2C26.5781 2 25.3802 2.23423 24.2626 2.6893C23.145 3.14438 22.1296 3.81139 21.2744 4.65222L19.4996 6.39642L17.7247 4.65222C15.9972 2.95459 13.6543 2.00088 11.2113 2.00088C8.76832 2.00088 6.42539 2.95459 4.69793 4.65222C2.97048 6.34984 2 8.65231 2 11.0531C2 13.4539 2.97048 15.7564 4.69793 17.454L6.47279 19.1982L19.4996 32L32.5263 19.1982L34.3012 17.454C35.1568 16.6136 35.8355 15.6157 36.2986 14.5174C36.7617 13.4191 37 12.2419 37 11.0531C37 9.86428 36.7617 8.68709 36.2986 7.5888C35.8355 6.49052 35.1568 5.49265 34.3012 4.65222Z" stroke="#1D1D1D" stroke-width="3" stroke-linecap="round" stroke-linejoin="round"/>
</g>
<defs>
<clipPath id="clip0_80_28">
<rect width="39" height="34" fill="white"/>
</clipPath>
</defs>
</svg>
