<svg width="39" height="35" viewBox="0 0 39 35" fill="none" xmlns="http://www.w3.org/2000/svg">
<g clip-path="url(#clip0_66_32)">
<path d="M34.3012 5.52502C33.446 4.68419 32.4306 4.01718 31.313 3.56211C30.1954 3.10703 28.9975 2.8728 27.7878 2.8728C26.5781 2.8728 25.3802 3.10703 24.2626 3.56211C23.145 4.01718 22.1296 4.68419 21.2744 5.52502L19.4996 7.26922L17.7247 5.52502C15.9972 3.8274 13.6543 2.87368 11.2113 2.87368C8.76832 2.87368 6.42539 3.8274 4.69793 5.52502C2.97048 7.22264 2 9.52511 2 11.9259C2 14.3267 2.97048 16.6292 4.69793 18.3268L6.47279 20.071L19.4996 32.8728L32.5263 20.071L34.3012 18.3268C35.1568 17.4864 35.8355 16.4885 36.2986 15.3902C36.7617 14.2919 37 13.1147 37 11.9259C37 10.7371 36.7617 9.55989 36.2986 8.46161C35.8355 7.36332 35.1568 6.36546 34.3012 5.52502Z" stroke="white" stroke-width="3" stroke-linecap="round" stroke-linejoin="round"/>
</g>
<defs>
<clipPath id="clip0_66_32">
<rect width="39" height="34" fill="white" transform="translate(0 0.872803)"/>
</clipPath>
</defs>
</svg>
