<svg width="39" height="40" viewBox="0 0 39 40" fill="none" xmlns="http://www.w3.org/2000/svg">
<path d="M9.75 3.6228L4.875 10.1228V32.8728C4.875 33.7348 5.21741 34.5614 5.8269 35.1709C6.4364 35.7804 7.26305 36.1228 8.125 36.1228H30.875C31.737 36.1228 32.5636 35.7804 33.1731 35.1709C33.7826 34.5614 34.125 33.7348 34.125 32.8728V10.1228L29.25 3.6228H9.75Z" stroke="white" stroke-width="3" stroke-linecap="round" stroke-linejoin="round"/>
<path d="M4.875 10.1228H34.125" stroke="white" stroke-width="3" stroke-linecap="round" stroke-linejoin="round"/>
<path d="M26 16.6228C26 18.3467 25.3152 20 24.0962 21.219C22.8772 22.438 21.2239 23.1228 19.5 23.1228C17.7761 23.1228 16.1228 22.438 14.9038 21.219C13.6848 20 13 18.3467 13 16.6228" stroke="white" stroke-width="3" stroke-linecap="round" stroke-linejoin="round"/>
</svg>
