<svg width="83" height="84" viewBox="0 0 83 84" fill="none" xmlns="http://www.w3.org/2000/svg">
<path d="M55.3335 28.167H69.1668L79.5418 38.542V55.8337H55.3335V28.167Z" stroke="#1D1D1D" stroke-width="4" stroke-linecap="round" stroke-linejoin="round"/>
<path d="M55.3335 10.875H3.4585V55.8333H55.3335V10.875Z" stroke="#1D1D1D" stroke-width="4" stroke-linecap="round" stroke-linejoin="round"/>
<path d="M19.0208 73.1252C23.7958 73.1252 27.6667 69.2543 27.6667 64.4793C27.6667 59.7044 23.7958 55.8335 19.0208 55.8335C14.2459 55.8335 10.375 59.7044 10.375 64.4793C10.375 69.2543 14.2459 73.1252 19.0208 73.1252Z" stroke="#1D1D1D" stroke-width="4" stroke-linecap="round" stroke-linejoin="round"/>
<path d="M63.9793 73.1252C68.7543 73.1252 72.6252 69.2543 72.6252 64.4793C72.6252 59.7044 68.7543 55.8335 63.9793 55.8335C59.2044 55.8335 55.3335 59.7044 55.3335 64.4793C55.3335 69.2543 59.2044 73.1252 63.9793 73.1252Z" stroke="#1D1D1D" stroke-width="4" stroke-linecap="round" stroke-linejoin="round"/>
</svg>
